<svg width="128" height="32" viewBox="0 0 128 32" fill="none" xmlns="http://www.w3.org/2000/svg">
<path d="M52.8 21.2364C50.7637 23.7091 47.8546 25.3091 44.6546 25.3091C39.1273 25.3091 34.7637 21.3818 34.7637 16.2909C34.7637 13.8182 35.7819 11.4909 37.6728 9.74544C39.4182 7.99999 41.8909 7.12726 44.3637 7.27272C47.5637 7.27272 50.6182 8.72726 52.5091 11.3454L48.8728 13.9636C47.8546 12.3636 46.2546 11.3454 44.3637 11.3454C41.6 11.3454 39.2728 13.6727 39.2728 16.4364C39.4182 19.3454 41.7455 21.5273 44.5091 21.5273C46.4 21.5273 48.1455 20.6545 49.1637 19.0545L52.8 21.2364Z" fill="#181818"/>
<path d="M59.3453 0H54.8362V24.8727H59.3453V0Z" fill="#181818"/>
<path d="M71.418 21.3818C74.3271 21.3818 76.7998 19.0545 76.9453 16.1454C76.7998 13.2363 74.3271 10.909 71.418 10.909C68.5089 10.909 66.0362 13.2363 65.8907 16.1454C66.0362 19.0545 68.3635 21.3818 71.418 21.3818ZM71.418 7.12721C73.8907 6.98176 76.3635 7.85448 78.2544 9.59994C80.1453 11.3454 81.1635 13.6727 81.3089 16.1454C81.1635 18.6181 80.1453 21.0908 78.2544 22.6908C76.3635 24.4363 73.8907 25.309 71.418 25.1636C65.8907 25.1636 61.5271 21.2363 61.5271 16.1454C61.5271 11.0545 65.8907 7.12721 71.418 7.12721Z" fill="#181818"/>
<path d="M80.4363 7.41821H85.8181L90.1817 16.7273L94.8363 7.41821H99.7817L90.1817 25.8909L80.4363 7.41821Z" fill="#181818"/>
<path d="M112.727 13.6727C112 11.9272 110.4 10.909 108.509 10.909C106.618 10.909 104.873 11.9272 104 13.6727H112.727ZM115.636 22.8363C113.745 24.4363 111.418 25.1636 108.945 25.1636C103.418 25.1636 99.0544 21.2363 99.0544 16.1454C99.0544 13.6727 100.073 11.3454 101.818 9.59994C103.564 7.85448 106.036 6.98176 108.509 7.12721C110.982 6.98176 113.309 7.99994 115.054 9.74539C116.8 11.4908 117.673 13.8181 117.527 16.2908V17.4545H103.564C104.291 19.7818 106.473 21.3818 108.945 21.3818C110.4 21.3818 111.854 20.7999 113.018 19.6363L115.636 22.8363ZM119.709 15.1272C119.709 10.909 122.909 7.56357 128 7.56357V11.6363C126.982 11.6363 125.818 12.0727 125.091 12.7999C124.364 13.5272 124.073 14.6908 124.218 15.709V24.8727H119.709V15.1272Z" fill="#181818"/>
<path d="M14.109 8.14536C14.109 5.23627 12.3636 2.76354 9.74539 1.5999C7.12721 0.436268 4.07266 1.01809 2.0363 3.05445C-6.6407e-05 5.09081 -0.581885 8.14536 0.436297 10.7635C1.45448 13.3817 4.07266 15.1272 6.98175 15.1272H14.109V8.14536ZM16.1454 8.14536C16.1454 5.23627 17.8908 2.76354 20.509 1.5999C23.1272 0.436268 26.1818 1.01809 28.2181 3.05445C30.2545 5.09081 30.8363 8.14536 29.8181 10.7635C28.7999 13.3817 26.1818 15.1272 23.2727 15.1272H16.1454V8.14536ZM16.1454 24.1454C16.1454 27.0544 17.8908 29.5272 20.509 30.6908C23.1272 31.8544 26.1818 31.2726 28.2181 29.2363C30.2545 27.1999 30.8363 24.1454 29.8181 21.5272C28.7999 18.909 26.1818 17.1635 23.2727 17.1635H16.1454V24.1454ZM6.98175 29.2363C9.74539 29.2363 12.0727 27.0544 12.0727 24.1454V19.0544H6.98175C4.21812 19.0544 1.89084 21.2363 1.89084 24.1454C1.89084 27.0544 4.21812 29.2363 6.98175 29.2363ZM14.109 24.1454C14.109 27.0544 12.3636 29.5272 9.74539 30.6908C7.12721 31.8544 4.07266 31.2726 2.0363 29.2363C-6.6407e-05 27.1999 -0.581885 24.1454 0.436297 21.5272C1.45448 18.909 4.07266 17.1635 6.98175 17.1635H14.109V24.1454Z" fill="#444444"/>
</svg>
