<svg width="125" height="60" viewBox="0 0 125 60" fill="none" xmlns="http://www.w3.org/2000/svg">
<path d="M21.54 60C21.0106 59.9162 20.4758 59.8563 19.9528 59.7419C17.5627 59.2192 15.8545 57.8102 14.9609 55.5354C13.646 52.1848 13.5563 48.7437 14.7243 45.3408C15.7594 42.3321 18.2726 40.5822 21.4233 40.5495C22.3917 40.5262 23.3595 40.619 24.3061 40.8261C26.9068 41.4381 28.5838 43.1466 29.3736 45.6697C30.3331 48.7383 30.3396 51.8526 29.2991 54.9016C28.2747 57.9027 26.1656 59.633 22.9749 59.9107C22.8533 59.9307 22.7333 59.9602 22.6162 59.9989L21.54 60ZM19.1003 50.0831C19.2829 51.4813 19.3834 52.7074 19.62 53.9064C19.7929 54.7775 20.3418 55.4363 21.2602 55.6704C22.6713 56.0287 23.9193 55.2762 24.3353 53.7604C24.7502 52.2196 24.8741 50.6138 24.7005 49.0269C24.6024 48.0966 24.4072 47.1794 24.1181 46.2904C24.0013 45.8953 23.7743 45.5424 23.4642 45.2737C23.1541 45.005 22.7738 44.8317 22.3688 44.7746C21.1057 44.5677 20.1235 45.11 19.7432 46.4624C19.4007 47.682 19.2894 48.9681 19.1003 50.0831Z" fill="#181818"/>
<path d="M124.855 59.4567C123.039 59.4676 121.224 59.4817 119.408 59.4882C117.895 59.4937 116.392 59.4882 114.849 59.4882V41.0777C114.966 41.0546 115.085 41.0393 115.204 41.032C118.279 41.032 121.354 41.032 124.43 41.032C124.572 41.0408 124.714 41.0583 124.855 41.0842V44.9979H119.804V48.3735H124.081V52.1924H119.799V55.5398H124.855V59.4567Z" fill="#181818"/>
<path d="M110.065 60C109.322 59.877 108.568 59.804 107.842 59.6211C106.069 59.1735 104.473 58.1907 103.269 56.8044C102.065 55.4181 101.31 53.6943 101.104 51.8636C100.875 49.9296 100.9 48.0088 101.684 46.2011C103.232 42.6469 106.006 40.7837 109.826 40.5681C110.997 40.5028 112.183 40.677 113.392 40.7489V45.244L111.801 44.9685C108.335 44.3619 106.507 46.9601 106.301 49.4799C106.218 50.5155 106.286 51.5489 106.643 52.5289C107.407 54.6447 109.379 55.8142 111.652 55.4886C112.219 55.4069 112.78 55.2839 113.424 55.1619V59.5547L111.047 59.9902L110.065 60Z" fill="#181818"/>
<path d="M9.55739 60C8.92098 59.8977 8.27917 59.8247 7.65032 59.6897C3.81997 58.8632 1.01069 55.6781 0.591462 51.7405C0.440193 50.3249 0.43371 48.9191 0.766502 47.5296C1.73138 43.5006 5.16086 40.6868 9.34669 40.5659C10.5201 40.5322 11.6989 40.6868 12.8907 40.7565V45.244C12.3569 45.1525 11.8351 45.0654 11.3143 44.9739C7.83832 44.3587 5.97231 46.9601 5.78971 49.5779C5.713 50.6723 5.80916 51.7557 6.23487 52.7761C7.05065 54.7361 8.9642 55.8055 11.1381 55.4984C11.7065 55.4178 12.2683 55.2948 12.8745 55.1837V59.5753L10.5288 60.0044L9.55739 60Z" fill="#181818"/>
<path d="M68.306 32.9935L70.8721 39.3637C70.5112 39.1699 70.2833 39.0512 70.0607 38.9281C66.7112 37.0519 63.3757 35.167 60.0186 33.3114C59.6436 33.1125 59.2268 33.0072 58.803 33.0044C50.6187 32.9869 42.4332 32.9826 34.2467 32.9913C31.1413 32.9913 28.7189 31.0105 28.1116 27.9539C28.0431 27.5253 28.0167 27.0909 28.0328 26.657C28.0274 19.9361 28.0738 13.2142 28.0101 6.49437C27.9787 3.13938 30.3267 0.781847 32.7999 0.314697C33.2752 0.217227 33.7584 0.164009 34.2434 0.155713C51.9635 0.148454 69.6836 0.148454 87.4037 0.155713C90.4723 0.155713 92.8818 2.07441 93.5387 5.07441C93.659 5.69586 93.713 6.3285 93.6997 6.96152C93.7112 13.3753 93.713 19.7884 93.7051 26.2007C93.7051 27.7873 93.4415 29.2965 92.4269 30.5913C91.1994 32.1561 89.5884 32.9804 87.6273 32.9869C81.4566 33.0142 75.2859 32.9967 69.1152 32.9967L68.306 32.9935ZM44.9857 17.7615C45.0365 17.8225 45.0667 17.8443 45.0775 17.8704C45.1078 17.9554 45.1305 18.0425 45.1564 18.1285C46.1613 21.3953 47.4071 24.5532 49.4784 27.2984C50.0932 28.114 50.7696 28.9263 51.5637 29.5535C52.9813 30.6719 54.5891 29.976 54.9133 28.1945C54.9488 27.9056 54.9593 27.6142 54.9446 27.3234C54.9446 26.0374 54.8581 24.7426 54.9727 23.4664C55.1888 21.0588 55.4567 18.6501 55.8263 16.2621C56.319 13.0824 56.9165 9.92123 58.3697 6.99963C58.7922 6.15027 58.6863 5.2911 58.0715 4.56261C57.4232 3.78729 56.574 3.47368 55.5594 3.71216C54.803 3.88747 54.3611 4.40036 54.0294 5.0548C52.4487 8.17241 51.755 11.5492 51.1931 14.9641C50.9576 16.3949 50.7901 17.8377 50.5794 19.372C50.4897 19.1488 50.4249 19.0203 50.3871 18.8853C49.7788 16.751 49.1596 14.6189 48.5751 12.478C48.3147 11.523 48.2077 10.518 47.8868 9.58693C47.3466 8.02867 45.5951 7.70417 44.4681 8.91179C44.1905 9.22011 43.9544 9.56389 43.7658 9.9343C42.6345 12.0751 41.5216 14.2269 40.4012 16.3742C39.6178 17.8748 38.8334 19.3753 38.0241 20.9183C37.9782 20.8187 37.94 20.7156 37.9095 20.6102C37.0711 16.1412 36.2355 11.6719 35.4028 7.20217C35.2505 6.38003 35.1802 5.50236 34.3418 5.06025C33.4071 4.56914 32.4423 4.6421 31.5865 5.24319C30.7848 5.80508 30.5622 6.66751 30.7156 7.60508C31.1565 10.2947 31.5433 12.9953 32.0987 15.6632C32.8474 19.2664 33.6978 22.8501 34.5838 26.4207C34.828 27.4007 35.2742 28.3644 35.7788 29.2519C36.3104 30.1862 37.1835 30.331 38.0306 29.6777C38.6054 29.2323 39.1813 28.6976 39.5433 28.0835C40.6237 26.2508 41.6232 24.367 42.6151 22.4809C43.4341 20.9325 44.1905 19.3524 44.9857 17.7615ZM90.4647 15.2984C90.4312 13.9666 90.2691 12.6294 89.8067 11.3379C88.7424 8.3608 86.3642 6.59237 83.4026 6.57386C80.9121 6.55862 79.0309 7.71506 77.5982 9.67513C75.246 12.8929 74.4269 16.5212 74.9683 20.4468C75.2298 22.3459 75.9526 24.0828 77.3961 25.4112C80.1708 27.9648 84.6171 27.6381 87.1303 24.6762C89.4058 21.9964 90.3869 18.8221 90.4647 15.2984ZM65.0526 27.1285C65.3919 27.1034 65.7344 27.1002 66.0715 27.0512C68.2022 26.7365 69.7571 25.5267 70.9543 23.7964C72.2821 21.8966 73.1302 19.6992 73.4253 17.3946C73.7041 15.2472 73.6101 13.1477 72.8473 11.1005C70.9445 5.99564 64.6712 5.14628 61.5172 8.77241C58.0294 12.7829 57.0321 17.4359 58.668 22.518C59.6242 25.4907 62.0618 27.1067 65.0526 27.1285Z" fill="#181818"/>
<path d="M36.3569 47.1202C35.9474 51.2233 35.5378 55.3263 35.1251 59.4566H30.4412C31.218 53.3216 31.9928 47.2095 32.7718 41.0657H39.0581C39.741 44.3782 40.4271 47.7082 41.1305 51.1198C41.4481 49.543 41.7291 48.0479 42.0521 46.5626C42.426 44.8487 42.8301 43.1423 43.2407 41.4381C43.2785 41.2813 43.4849 41.0494 43.6156 41.0483C45.6286 41.0233 47.6426 41.0309 49.728 41.0309C50.5589 47.1757 51.3789 53.302 52.2088 59.4893H48.7685C47.2904 59.4893 47.2936 59.4893 47.1477 58.0116C46.7771 54.392 46.4033 50.7735 45.9592 47.13C45.9149 47.2661 45.862 47.3989 45.8285 47.5372C44.8978 51.3674 43.9718 55.1982 43.0505 59.0298C42.9662 59.3815 42.8344 59.5078 42.48 59.4969C41.6891 59.473 40.896 59.4686 40.1029 59.4969C39.7118 59.5111 39.5476 59.3935 39.4546 58.996C38.5038 55.1521 37.5281 51.3147 36.5589 47.4762C36.5287 47.3576 36.4865 47.241 36.4509 47.1245L36.3569 47.1202Z" fill="#181818"/>
<path d="M58.7705 47.0951C58.361 51.1971 57.9526 55.2991 57.5388 59.4435H52.8602C53.0147 58.1989 53.1638 56.9673 53.3205 55.7412C53.8471 51.5742 54.3751 47.4072 54.9045 43.2403C54.9791 42.6479 55.0644 42.0566 55.1206 41.4631C55.1498 41.1593 55.2481 41.021 55.5831 41.0276C57.3994 41.0417 59.2168 41.0515 61.0331 41.0221C61.4998 41.0145 61.5031 41.3118 61.5625 41.5982C62.1856 44.6268 62.8058 47.6559 63.4231 50.6853C63.4311 50.735 63.4503 50.7822 63.4794 50.8232C63.5084 50.8642 63.5465 50.8979 63.5906 50.9216C63.784 49.9241 63.958 48.9223 64.1762 47.9292C64.6495 45.7753 65.1487 43.6279 65.623 41.474C65.7008 41.119 65.8575 41.0221 66.2054 41.0265C68.0228 41.0424 69.8395 41.0424 71.6554 41.0265C72.0152 41.0265 72.1384 41.1288 72.187 41.5023C72.9527 47.2969 73.7296 53.0896 74.5176 58.8806C74.5414 59.057 74.5436 59.2355 74.5598 59.4544H69.6911C69.2589 55.347 68.8292 51.2352 68.402 47.119L68.3113 47.1114C67.3237 51.2243 66.3372 55.3383 65.3399 59.4904C64.2864 59.4904 63.2632 59.5056 62.2421 59.4708C62.119 59.4708 61.9396 59.2105 61.8953 59.0417C61.2794 56.6624 60.6819 54.2777 60.0801 51.8951L58.8786 47.1114L58.7705 47.0951Z" fill="#181818"/>
<path d="M92.4485 59.4577H87.5171V41.0951C87.5666 41.0701 87.6193 41.0521 87.6738 41.0417C90.2064 41.0886 92.7413 41.0907 95.2718 41.2084C96.4258 41.2617 97.5084 41.7136 98.4863 42.3648C101.668 44.4828 101.512 49.0672 98.2021 50.9673C98.094 51.0294 97.986 51.0871 97.8023 51.1851C99.0989 53.926 100.395 56.6548 101.727 59.461C101.486 59.4741 101.316 59.4904 101.148 59.4904C99.7807 59.4904 98.4139 59.4751 97.0416 59.5013C96.6429 59.5089 96.442 59.3837 96.2702 59.0178C95.1216 56.5644 93.9471 54.1176 92.7802 51.6795C92.7076 51.5031 92.5915 51.3483 92.4431 51.2298L92.4485 59.4577ZM92.4344 49.0606C93.181 48.9016 93.8844 48.8036 94.5543 48.5967C95.2242 48.3898 95.6348 47.8813 95.6748 47.1583C95.7126 46.396 95.5895 45.6621 94.9087 45.184C94.1718 44.6668 93.3183 44.6319 92.4344 44.6025V49.0606Z" fill="#181818"/>
<path d="M85.3507 48.3507C85.3507 49.5757 85.3507 50.6973 85.3507 51.8189C85.3507 51.9278 85.3389 52.0301 85.3302 52.1891H81.0201V55.5724H86.0077C86.0344 55.7252 86.0532 55.8794 86.0639 56.0341C86.0639 57.049 86.0639 58.0628 86.0639 59.0777C86.0639 59.3292 86.0639 59.5383 85.7116 59.5372C82.5274 59.5231 79.3443 59.5209 76.1612 59.5144C76.146 59.5144 76.1309 59.4969 76.0682 59.4599V41.1115H85.9796V44.9902H81.0061V48.3507H85.3507Z" fill="#181818"/>
<path d="M85.7678 15.2624C85.7299 17.4991 85.3356 19.249 84.1881 20.7278C83.7704 21.2453 83.2644 21.6834 82.6938 22.0214C81.7894 22.5659 80.9239 22.3165 80.3815 21.4062C79.609 20.1125 79.3572 18.7067 79.5063 17.1964C79.6704 15.4771 80.335 13.8451 81.4166 12.5053C81.6739 12.1813 81.9772 11.8973 82.3167 11.6624C83.2805 10.996 84.2972 11.2269 84.9023 12.232C85.5301 13.2795 85.8013 14.4272 85.7678 15.2624Z" fill="#181818"/>
<path d="M68.9056 15.6588C68.8364 17.5732 68.4345 19.3884 67.1822 20.8988C66.8089 21.3378 66.3665 21.712 65.8726 22.0062C64.9574 22.5594 64.0725 22.3198 63.5031 21.4062C62.6884 20.0995 62.4874 18.6381 62.6311 17.1343C62.7858 15.4851 63.419 13.9182 64.4518 12.6294C64.7474 12.244 65.1006 11.9071 65.4988 11.6309C66.4388 11.0058 67.4188 11.2313 68.0066 12.1939C68.6414 13.2331 68.9544 14.4395 68.9056 15.6588Z" fill="#181818"/>
</svg>
