<svg width="91" height="43" viewBox="0 0 91 43" fill="none" xmlns="http://www.w3.org/2000/svg">
<g clip-path="url(#clip0_0_1105)">
<path d="M15.5568 43.0001C15.1745 42.94 14.7882 42.8971 14.4105 42.8152C12.6844 42.4406 11.4506 41.4307 10.8053 39.8005C9.85556 37.3992 9.79079 34.9331 10.6344 32.4944C11.3819 30.3381 13.197 29.084 15.4726 29.0606C16.172 29.0439 16.8709 29.1104 17.5546 29.2589C19.4329 29.6974 20.644 30.9219 21.2144 32.7301C21.9074 34.9292 21.9121 37.1612 21.1606 39.3463C20.4208 41.4971 18.8975 42.7371 16.5932 42.9361C16.5053 42.9505 16.4187 42.9716 16.3341 42.9993L15.5568 43.0001ZM13.7948 35.893C13.9267 36.8951 13.9993 37.7738 14.1702 38.633C14.295 39.2573 14.6914 39.7295 15.3547 39.8973C16.3739 40.154 17.2752 39.6148 17.5756 38.5284C17.8753 37.4242 17.9648 36.2734 17.8394 35.136C17.7686 34.4694 17.6276 33.812 17.4188 33.1749C17.3344 32.8918 17.1705 32.6389 16.9465 32.4463C16.7225 32.2537 16.4479 32.1295 16.1554 32.0886C15.2431 31.9403 14.5338 32.3289 14.2591 33.2982C14.0117 34.1722 13.9314 35.0939 13.7948 35.893Z" fill="#181818"/>
<path d="M90.1727 42.6106C88.8617 42.6184 87.5507 42.6286 86.239 42.6332C85.1465 42.6371 84.061 42.6332 82.9467 42.6332V29.439C83.0312 29.4224 83.1167 29.4115 83.2026 29.4062C85.4235 29.4063 87.6447 29.4062 89.8661 29.4062C89.969 29.4126 90.0714 29.4251 90.1727 29.4437V32.2485H86.5254V34.6677H89.614V37.4046H86.5215V39.8035H90.1727V42.6106Z" fill="#181818"/>
<path d="M79.4914 43C78.9553 42.9118 78.4106 42.8595 77.8862 42.7284C76.6054 42.4076 75.4531 41.7033 74.5835 40.7098C73.7139 39.7163 73.1683 38.4809 73.0199 37.1689C72.8544 35.7829 72.8724 34.4063 73.4389 33.1108C74.5564 30.5636 76.5604 29.2283 79.3189 29.0738C80.1648 29.027 81.0209 29.1518 81.8941 29.2033V32.4248L80.7454 32.2274C78.242 31.7927 76.9217 33.6547 76.7734 35.4606C76.7133 36.2027 76.7625 36.9433 77.02 37.6457C77.5717 39.162 78.9958 40.0002 80.6377 39.7668C81.0474 39.7083 81.4524 39.6201 81.9175 39.5327V42.6808L80.2007 42.993L79.4914 43Z" fill="#181818"/>
<path d="M6.90258 42.9998C6.44295 42.9264 5.97942 42.8742 5.52525 42.7774C2.75889 42.1851 0.729966 39.9024 0.427188 37.0805C0.317938 36.0659 0.313255 35.0585 0.553605 34.0627C1.25046 31.1752 3.72731 29.1586 6.75041 29.072C7.59788 29.0478 8.44924 29.1586 9.30998 29.2086V32.4246C8.92448 32.3591 8.54757 32.2966 8.17144 32.2311C5.66103 31.7901 4.31336 33.6545 4.18148 35.5306C4.12607 36.3149 4.19552 37.0914 4.50299 37.8226C5.09215 39.2273 6.47416 39.9937 8.04424 39.7736C8.45471 39.7159 8.86049 39.6277 9.29827 39.5481V42.6954L7.60412 43.0029L6.90258 42.9998Z" fill="#181818"/>
<path d="M49.3321 23.6453L51.1854 28.2106C50.9248 28.0717 50.7601 27.9866 50.5994 27.8985C48.1803 26.5538 45.7713 25.203 43.3467 23.8732C43.0759 23.7306 42.7749 23.6552 42.4688 23.6531C36.5579 23.6406 30.6462 23.6375 24.7337 23.6437C22.4909 23.6437 20.7414 22.2242 20.3028 20.0336C20.2533 19.7264 20.2342 19.4151 20.2459 19.1041C20.242 14.2875 20.2755 9.47011 20.2295 4.65427C20.2068 2.24986 21.9026 0.560297 23.6888 0.225506C24.0321 0.155653 24.3811 0.117513 24.7313 0.111568C37.5292 0.106365 50.327 0.106365 63.1248 0.111568C65.3411 0.111568 67.0812 1.48663 67.5557 3.63663C67.6426 4.082 67.6816 4.5354 67.672 4.98906C67.6803 9.58561 67.6816 14.1816 67.6759 18.7772C67.6759 19.9142 67.4855 20.9958 66.7527 21.9237C65.8662 23.0452 64.7027 23.6359 63.2864 23.6406C58.8298 23.6601 54.3732 23.6476 49.9165 23.6476L49.3321 23.6453ZM32.4896 12.7291C32.5263 12.7728 32.5482 12.7884 32.556 12.8071C32.5778 12.868 32.5942 12.9304 32.6129 12.9921C33.3387 15.3333 34.2384 17.5964 35.7344 19.5638C36.1784 20.1483 36.6669 20.7305 37.2404 21.18C38.2643 21.9815 39.4254 21.4828 39.6595 20.2061C39.6852 19.999 39.6928 19.7901 39.6822 19.5817C39.6822 18.6601 39.6197 17.7322 39.7025 16.8176C39.8585 15.0921 40.0521 13.3659 40.3189 11.6545C40.6748 9.37569 41.1063 7.11019 42.1559 5.01638C42.461 4.40766 42.3846 3.79193 41.9405 3.26984C41.4723 2.7142 40.859 2.48944 40.1262 2.66035C39.58 2.786 39.2608 3.15356 39.0212 3.62258C37.8796 5.85687 37.3786 8.27688 36.9728 10.7242C36.8027 11.7497 36.6817 12.7837 36.5295 13.8833C36.4648 13.7233 36.4179 13.6312 36.3906 13.5344C35.9513 12.0049 35.5042 10.4768 35.082 8.94257C34.8939 8.25816 34.8167 7.53785 34.5849 6.87061C34.1947 5.75385 32.9298 5.5213 32.1159 6.38676C31.9154 6.60772 31.7448 6.8541 31.6086 7.11955C30.7916 8.65382 29.9878 10.1959 29.1786 11.7348C28.6128 12.8102 28.0463 13.8856 27.4618 14.9914C27.4287 14.92 27.4011 14.8462 27.3791 14.7706C26.7735 11.5678 26.1701 8.36481 25.5687 5.16153C25.4586 4.57233 25.4079 3.94333 24.8024 3.62649C24.1273 3.27453 23.4305 3.32681 22.8124 3.75759C22.2334 4.16028 22.0727 4.77836 22.1835 5.45028C22.5019 7.37787 22.7812 9.31326 23.1823 11.2252C23.7231 13.8076 24.3373 16.3759 24.9772 18.9348C25.1535 19.6372 25.4758 20.3278 25.8402 20.9638C26.2242 21.6334 26.8547 21.7372 27.4665 21.269C27.8816 20.9498 28.2976 20.5666 28.559 20.1265C29.3393 18.8131 30.0612 17.463 30.7775 16.1113C31.3691 15.0016 31.9153 13.8692 32.4896 12.7291ZM65.3356 10.9638C65.3114 10.0094 65.1943 9.05104 64.8604 8.12549C64.0917 5.99188 62.3741 4.72451 60.2352 4.71124C58.4365 4.70032 57.0779 5.5291 56.0431 6.93382C54.3443 9.2399 53.7528 11.8402 54.1437 14.6535C54.3326 16.0145 54.8546 17.2593 55.8972 18.2114C57.9011 20.0414 61.1123 19.8073 62.9274 17.6846C64.5708 15.764 65.2794 13.4892 65.3356 10.9638ZM46.9824 19.4421C47.2274 19.4241 47.4748 19.4218 47.7183 19.3866C49.2571 19.1611 50.3801 18.2941 51.2447 17.054C52.2037 15.6925 52.8163 14.1177 53.0294 12.4661C53.2307 10.9271 53.1628 9.42251 52.6119 7.95536C51.2377 4.29685 46.7069 3.68814 44.4291 6.28687C41.9101 9.16108 41.1898 12.4957 42.3713 16.1378C43.0619 18.2683 44.8224 19.4265 46.9824 19.4421Z" fill="#181818"/>
<path d="M26.2578 33.7693C25.962 36.7099 25.6663 39.6504 25.3682 42.6105H21.9854C22.5464 38.2137 23.1059 33.8333 23.6686 29.4303H28.2087C28.7019 31.8043 29.1974 34.1907 29.7054 36.6357C29.9348 35.5057 30.1377 34.4342 30.3711 33.3698C30.6411 32.1414 30.9329 30.9185 31.2294 29.6972C31.2568 29.5848 31.4058 29.4186 31.5002 29.4178C32.954 29.3999 34.4086 29.4053 35.9147 29.4053C36.5148 33.8091 37.1071 38.1996 37.7064 42.6339H35.2217C34.1542 42.6339 34.1566 42.6339 34.0512 41.5749C33.7835 38.9808 33.5135 36.3876 33.1928 33.7763C33.1608 33.8739 33.1226 33.9691 33.0984 34.0682C32.4263 36.8131 31.7575 39.5586 31.0921 42.3045C31.0312 42.5566 30.936 42.6471 30.6801 42.6393C30.1089 42.6222 29.5361 42.619 28.9633 42.6393C28.6808 42.6495 28.5622 42.5652 28.4951 42.2803C27.8084 39.5255 27.1037 36.7754 26.4037 34.0245C26.3819 33.9394 26.3514 33.8559 26.3257 33.7724L26.2578 33.7693Z" fill="#181818"/>
<path d="M42.4455 33.7516C42.1498 36.6913 41.8548 39.6311 41.5559 42.6013H38.177C38.2886 41.7093 38.3963 40.8267 38.5094 39.9479C38.8897 36.9616 39.2711 33.9753 39.6534 30.9889C39.7073 30.5644 39.7689 30.1407 39.8095 29.7153C39.8306 29.4976 39.9016 29.3985 40.1435 29.4032C41.4553 29.4133 42.7678 29.4203 44.0796 29.3993C44.4167 29.3938 44.4191 29.6069 44.462 29.8121C44.912 31.9827 45.3599 34.1535 45.8058 36.3245C45.8115 36.3602 45.8254 36.394 45.8464 36.4234C45.8674 36.4528 45.8949 36.4769 45.9267 36.4939C46.0664 35.779 46.192 35.0611 46.3497 34.3493C46.6915 32.8057 47.052 31.2668 47.3946 29.7231C47.4507 29.4687 47.5639 29.3993 47.8152 29.4024C49.1277 29.4138 50.4398 29.4138 51.7513 29.4024C52.0111 29.4024 52.1001 29.4758 52.1352 29.7434C52.6882 33.8962 53.2493 38.0477 53.8185 42.1978C53.8356 42.3242 53.8372 42.4522 53.8489 42.6091H50.3326C50.0205 39.6654 49.7101 36.7186 49.4016 33.7687L49.3361 33.7633C48.6228 36.7108 47.9104 39.6592 47.1901 42.6348C46.4293 42.6348 45.6903 42.6458 44.9528 42.6208C44.8639 42.6208 44.7343 42.4343 44.7023 42.3133C44.2575 40.6081 43.826 38.8991 43.3913 37.1916L42.5236 33.7633L42.4455 33.7516Z" fill="#181818"/>
<path d="M66.7685 42.6112H63.2069V29.4513C63.2427 29.4334 63.2807 29.4205 63.3201 29.4131C65.1492 29.4466 66.9799 29.4482 68.8075 29.5325C69.6409 29.5707 70.4229 29.8946 71.1291 30.3613C73.4272 31.8791 73.3141 35.1646 70.9238 36.5264C70.8458 36.5709 70.7678 36.6123 70.6351 36.6825C71.5715 38.6468 72.508 40.6025 73.4694 42.6135C73.2953 42.6229 73.1728 42.6346 73.0511 42.6346C72.0639 42.6346 71.0768 42.6237 70.0857 42.6424C69.7978 42.6479 69.6526 42.5581 69.5286 42.2959C68.6991 40.5377 67.8508 38.7841 67.008 37.0368C66.9556 36.9104 66.8718 36.7995 66.7646 36.7145L66.7685 42.6112ZM66.7583 35.1599C67.2975 35.046 67.8055 34.9758 68.2894 34.8275C68.7732 34.6792 69.0697 34.3148 69.0986 33.7966C69.1259 33.2503 69.0369 32.7243 68.5453 32.3817C68.0131 32.011 67.3966 31.9861 66.7583 31.965V35.1599Z" fill="#181818"/>
<path d="M61.6423 34.6512C61.6423 35.5292 61.6423 36.333 61.6423 37.1368C61.6423 37.2148 61.6337 37.2882 61.6274 37.4021H58.5146V39.8268H62.1167C62.136 39.9363 62.1496 40.0468 62.1573 40.1577C62.1573 40.8851 62.1573 41.6116 62.1573 42.3389C62.1573 42.5192 62.1573 42.6691 61.9029 42.6683C59.6032 42.6581 57.3043 42.6566 55.0053 42.6519C54.9944 42.6519 54.9835 42.6394 54.9382 42.6129V29.4631H62.0964V32.2429H58.5045V34.6512H61.6423Z" fill="#181818"/>
<path d="M61.9435 10.9381C61.9162 12.5411 61.6314 13.7952 60.8026 14.855C60.501 15.2258 60.1355 15.5398 59.7234 15.7821C59.0702 16.1723 58.4452 15.9936 58.0534 15.3412C57.4955 14.414 57.3137 13.4065 57.4214 12.3241C57.5399 11.092 58.0199 9.92235 58.801 8.96217C58.9868 8.72997 59.2059 8.52644 59.4511 8.35814C60.1471 7.88054 60.8814 8.04598 61.3184 8.76629C61.7718 9.51704 61.9677 10.3396 61.9435 10.9381Z" fill="#181818"/>
<path d="M49.7653 11.2223C49.7153 12.5942 49.425 13.8951 48.5206 14.9775C48.251 15.2922 47.9315 15.5604 47.5748 15.7712C46.9139 16.1677 46.2748 15.996 45.8635 15.3412C45.2751 14.4047 45.13 13.3574 45.2338 12.2797C45.3454 11.0977 45.8028 9.97484 46.5487 9.0512C46.7622 8.77497 47.0173 8.53356 47.3048 8.33557C47.9837 7.88762 48.6915 8.04917 49.116 8.73904C49.5745 9.48382 49.8006 10.3484 49.7653 11.2223Z" fill="#181818"/>
</g>
<defs>
<clipPath id="clip0_0_1105">
<rect width="91" height="43" fill="white"/>
</clipPath>
</defs>
</svg>
