<svg width="184" height="46" viewBox="0 0 184 46" fill="none" xmlns="http://www.w3.org/2000/svg">
<g clip-path="url(#clip0_0_691)">
<path d="M75.9 30.5272C72.9727 34.0818 68.7909 36.3818 64.1909 36.3818C56.2455 36.3818 49.9727 30.7363 49.9727 23.4181C49.9727 19.8636 51.4364 16.5181 54.1546 14.009C56.6637 11.4999 60.2182 10.2454 63.7727 10.4545C68.3727 10.4545 72.7637 12.5454 75.4818 16.309L70.2546 20.0727C68.7909 17.7727 66.4909 16.309 63.7727 16.309C59.8 16.309 56.4546 19.6545 56.4546 23.6272C56.6637 27.809 60.0091 30.9454 63.9818 30.9454C66.7 30.9454 69.2091 29.6908 70.6727 27.3909L75.9 30.5272Z" fill="#181818"/>
<path d="M85.3091 0H78.8273V35.7545H85.3091V0Z" fill="#181818"/>
<path d="M102.664 30.7364C106.845 30.7364 110.4 27.391 110.609 23.2091C110.4 19.0273 106.845 15.6819 102.664 15.6819C98.4818 15.6819 94.9273 19.0273 94.7182 23.2091C94.9273 27.391 98.2727 30.7364 102.664 30.7364ZM102.664 10.2455C106.218 10.0364 109.773 11.291 112.491 13.8C115.209 16.3091 116.673 19.6546 116.882 23.2091C116.673 26.7637 115.209 30.3182 112.491 32.6182C109.773 35.1273 106.218 36.3819 102.664 36.1728C94.7182 36.1728 88.4455 30.5273 88.4455 23.2091C88.4455 15.891 94.7182 10.2455 102.664 10.2455Z" fill="#181818"/>
<path d="M115.627 10.6637H123.364L129.636 24.0455L136.327 10.6637H143.436L129.636 37.2182L115.627 10.6637Z" fill="#181818"/>
<path d="M162.045 19.6546C161 17.1455 158.7 15.6819 155.982 15.6819C153.264 15.6819 150.755 17.1455 149.5 19.6546H162.045ZM166.227 32.8273C163.509 35.1273 160.164 36.1728 156.609 36.1728C148.664 36.1728 142.391 30.5273 142.391 23.2091C142.391 19.6546 143.855 16.3091 146.364 13.8C148.873 11.291 152.427 10.0364 155.982 10.2455C159.536 10.0364 162.882 11.5 165.391 14.0091C167.9 16.5182 169.155 19.8637 168.945 23.4182V25.091H148.873C149.918 28.4364 153.055 30.7364 156.609 30.7364C158.7 30.7364 160.791 29.9 162.464 28.2273L166.227 32.8273ZM172.082 21.7455C172.082 15.6819 176.682 10.8728 184 10.8728V16.7273C182.536 16.7273 180.864 17.3546 179.818 18.4C178.773 19.4455 178.355 21.1182 178.564 22.5819V35.7546H172.082V21.7455Z" fill="#181818"/>
<path d="M20.2818 11.7091C20.2818 7.52732 17.7727 3.97277 14.0091 2.30005C10.2455 0.627318 5.85456 1.46368 2.92728 4.39095C1.13398e-05 7.31823 -0.836352 11.7091 0.627284 15.4728C2.09092 19.2364 5.85456 21.7455 10.0364 21.7455H20.2818V11.7091ZM23.2091 11.7091C23.2091 7.52732 25.7182 3.97277 29.4818 2.30005C33.2455 0.627318 37.6364 1.46368 40.5636 4.39095C43.4909 7.31823 44.3273 11.7091 42.8636 15.4728C41.4 19.2364 37.6364 21.7455 33.4546 21.7455H23.2091V11.7091ZM23.2091 34.7091C23.2091 38.891 25.7182 42.4455 29.4818 44.1182C33.2455 45.791 37.6364 44.9546 40.5636 42.0273C43.4909 39.1 44.3273 34.7091 42.8636 30.9455C41.4 27.1819 37.6364 24.6728 33.4546 24.6728H23.2091V34.7091ZM10.0364 42.0273C14.0091 42.0273 17.3546 38.891 17.3546 34.7091V27.391H10.0364C6.06365 27.391 2.71819 30.5273 2.71819 34.7091C2.71819 38.891 6.06365 42.0273 10.0364 42.0273ZM20.2818 34.7091C20.2818 38.891 17.7727 42.4455 14.0091 44.1182C10.2455 45.791 5.85456 44.9546 2.92728 42.0273C1.13398e-05 39.1 -0.836352 34.7091 0.627284 30.9455C2.09092 27.1819 5.85456 24.6728 10.0364 24.6728H20.2818V34.7091Z" fill="#444444"/>
</g>
<defs>
<clipPath id="clip0_0_691">
<rect width="184" height="46" fill="white"/>
</clipPath>
</defs>
</svg>
