<svg width="131" height="34" viewBox="0 0 131 34" fill="none" xmlns="http://www.w3.org/2000/svg">
<g clip-path="url(#clip0_0_1071)">
<path d="M71.1936 33.7068C71.205 31.681 71.2167 29.6571 71.2287 27.635C71.2287 26.9415 71.2287 26.247 71.2287 25.4471C71.1422 25.5133 71.0605 25.5858 70.9843 25.6642C68.426 29.0794 61.8366 29.0143 59.9136 23.3461C58.8703 20.2706 59.0456 17.2157 61.0207 14.5211C63.4027 11.2654 68.1497 11.1037 70.8345 14.0946C70.927 14.2031 71.0226 14.3008 71.2127 14.5092V12.3604H73.3185V33.7057L71.1936 33.7068ZM71.2255 19.9711C71.2404 18.7405 71.0417 17.5532 70.4372 16.4745C69.4353 14.6839 67.8639 13.9514 65.9016 14.0772C64.0157 14.1988 62.7238 15.2243 62.0651 17.0149C61.3341 18.9998 61.3214 21.0238 62.0842 22.9978C62.7833 24.8014 64.1602 25.7608 66.0471 25.8595C67.8597 25.955 69.3407 25.2561 70.3214 23.6511C71.0088 22.5311 71.2372 21.2777 71.2255 19.9711Z" fill="#181818"/>
<path d="M42.0645 24.0059L43.911 22.632C43.978 22.7037 44.0411 22.7791 44.1001 22.8577C45.8425 25.5231 49.2636 26.2371 51.8464 25.4623C53.7748 24.886 54.799 23.3819 54.6428 21.4079C54.5663 20.4475 54.1349 19.652 53.2988 19.2754C52.0621 18.7165 50.7563 18.3139 49.474 17.8516C48.1438 17.3719 46.7573 17.0149 45.4877 16.4039C41.6257 14.5438 42.0262 9.29243 45.2008 7.32491C48.7441 5.12733 54.0776 6.13116 56.5308 9.5952L54.7841 10.9897C53.9086 9.86325 52.8494 9.06779 51.533 8.68904C49.8777 8.21263 48.2394 8.22674 46.6829 9.06453C45.3432 9.78512 44.7461 11.2241 45.1541 12.6317C45.3506 13.3088 45.7522 13.858 46.3589 14.151C47.2573 14.5682 48.177 14.9363 49.1138 15.2536C50.5332 15.7506 51.9888 16.1478 53.3902 16.6915C54.0814 16.9715 54.7218 17.368 55.2845 17.8646C57.743 20.0036 57.5263 24.1665 54.8808 26.3294C53.7397 27.2627 52.4116 27.7402 50.9805 27.8899C47.8197 28.2101 45.0032 27.4558 42.7997 24.9707C42.5383 24.6809 42.3226 24.3499 42.0645 24.0059Z" fill="#181818"/>
<path d="M130.811 20.3323H119.431C119.132 22.1609 120.361 24.4877 122.036 25.3244C123.175 25.8771 124.463 26.0208 125.691 25.7322C126.92 25.4436 128.017 24.7397 128.805 23.7345L130.292 25.0748C129.655 25.9292 128.835 26.6236 127.895 27.1052C124.863 28.6875 121.001 28.0168 118.947 25.5349C117.637 23.9516 117.158 22.0676 117.162 20.0426C117.162 17.5162 117.831 15.2242 119.807 13.5584C121.905 11.7905 124.319 11.5388 126.805 12.4959C129.189 13.4151 130.46 15.3262 130.798 17.8656C130.899 18.6578 130.811 19.4739 130.811 20.3323ZM119.463 18.4006H128.651C128.572 15.8699 126.754 14.0858 124.249 14.0413C121.594 13.9957 119.642 15.756 119.463 18.4006Z" fill="#181818"/>
<path d="M94.2648 15.689L93.1885 14.0221C94.3854 13.0372 95.814 12.3895 97.3321 12.1436C98.7982 11.8875 100.26 11.894 101.674 12.4431C103.322 13.0823 104.323 14.4779 104.33 16.2544C104.354 19.9246 104.339 23.5949 104.339 27.2662C104.339 27.353 104.319 27.4409 104.3 27.6004C103.714 27.6004 103.131 27.62 102.558 27.582C102.452 27.5755 102.287 27.3432 102.271 27.2011C102.247 26.8294 102.242 26.4566 102.258 26.0844C102.176 26.0844 102.131 26.0714 102.116 26.0844C100.16 28.1279 97.8091 28.3438 95.3017 27.5201C93.5051 26.9298 92.4969 25.3497 92.4735 23.3616C92.4501 21.4081 93.3234 19.9463 95.1508 19.3093C96.4109 18.8752 97.7666 18.719 99.0692 18.3999C99.8257 18.2293 100.568 17.9989 101.29 17.7108C101.944 17.4362 102.266 16.86 102.246 16.1057C102.226 15.3515 101.859 14.8393 101.231 14.5137C100.176 13.9711 99.0447 13.9613 97.909 14.11C96.5809 14.2902 95.3517 14.7579 94.2648 15.689ZM102.199 19.3419C100.719 20.1189 99.1287 20.2763 97.5764 20.5975C97.0241 20.7173 96.4812 20.8783 95.9519 21.0793C95.6903 21.1688 95.4517 21.3171 95.2535 21.5131C95.0553 21.7092 94.9026 21.9481 94.8066 22.2123C94.2754 23.6415 94.9585 25.1424 96.3748 25.6264C96.7286 25.7393 97.0928 25.815 97.4617 25.8521C99.8341 26.1441 101.858 24.7278 102.176 22.4467C102.314 21.4592 102.199 20.4347 102.199 19.3419Z" fill="#181818"/>
<path d="M89.2691 27.5697H87.2504V25.497C87.0315 25.7227 86.9168 25.8345 86.8074 25.9538C85.9737 26.8641 84.8953 27.5024 83.7076 27.7883C82.5198 28.0743 81.2759 27.9952 80.132 27.5611C78.3439 26.8676 77.4854 25.4177 77.1678 23.5794C77.0845 23.044 77.0458 22.5023 77.052 21.9602C77.0413 18.9769 77.052 15.9915 77.052 13.0104V12.3755H79.145V12.9387C79.145 15.7777 79.145 18.6166 79.1503 21.4556C79.1463 21.9968 79.1839 22.5374 79.2629 23.0726C79.5997 25.1627 80.897 26.0233 82.8901 25.8497C85.4963 25.6229 87.2206 23.5891 87.2366 20.8088C87.2515 18.2043 87.2366 15.5997 87.2366 12.9952V12.3679H89.2754L89.2691 27.5697Z" fill="#181818"/>
<path d="M108.102 27.6024V12.3789H110.138V14.0729L110.342 14.2194C110.41 14.0794 110.448 13.9091 110.554 13.806C112.054 12.2953 113.802 11.6594 115.879 12.3094C116.634 12.546 116.631 12.5927 116.381 13.3285C116.243 13.7332 116.105 14.138 116.008 14.4267C115.172 14.3518 114.394 14.1521 113.649 14.2422C111.883 14.4593 110.633 15.8701 110.306 17.8766C110.212 18.5014 110.167 19.1328 110.171 19.7649C110.154 22.1879 110.154 24.6115 110.171 27.0359C110.171 27.4798 110.058 27.6513 109.606 27.6154C109.119 27.572 108.625 27.6024 108.102 27.6024Z" fill="#181818"/>
<path fill-rule="evenodd" clip-rule="evenodd" d="M10.2163 0.292969C4.73402 0.292969 0.289795 4.73719 0.289795 10.2194V23.7803C0.289795 29.2625 4.73402 33.7068 10.2163 33.7068H23.1133C28.5956 33.7068 33.0398 29.2625 33.0398 23.7803V10.2194C33.0398 4.7372 28.5956 0.292969 23.1133 0.292969H10.2163ZM9.94643 6.15518C7.81445 6.15518 6.08614 7.8835 6.08614 10.0155V23.9845C6.08614 26.1165 7.81445 27.8448 9.94643 27.8448H23.3829C25.5149 27.8448 27.2432 26.1165 27.2432 23.9845V10.0155C27.2432 7.88349 25.5149 6.15518 23.3829 6.15518H9.94643Z" fill="#181818"/>
<rect x="12.1724" y="12.3103" width="8.98451" height="9.37931" rx="2.20588" fill="#181818"/>
</g>
<defs>
<clipPath id="clip0_0_1071">
<rect width="131" height="34" fill="white"/>
</clipPath>
</defs>
</svg>
