<svg width="182" height="48" viewBox="0 0 182 48" fill="none" xmlns="http://www.w3.org/2000/svg">
<g clip-path="url(#clip0_0_663)">
<path d="M98.9103 47.5862C98.9261 44.7263 98.9423 41.869 98.959 39.0142C98.959 38.0352 98.959 37.0547 98.959 35.9255C98.8388 36.0189 98.7253 36.1213 98.6195 36.2319C95.0651 41.0534 85.9105 40.9615 83.2388 32.9594C81.7893 28.6175 82.0329 24.3047 84.7769 20.5005C88.0863 15.9043 94.6814 15.676 98.4114 19.8984C98.5398 20.0516 98.6727 20.1895 98.9369 20.4837V17.4501H101.862V47.5847L98.9103 47.5862ZM98.9546 28.1946C98.9753 26.4572 98.6992 24.7812 97.8594 23.2583C96.4674 20.7303 94.2843 19.6962 91.558 19.8739C88.938 20.0455 87.1431 21.4933 86.2279 24.0212C85.2124 26.8234 85.1946 29.6807 86.2545 32.4676C87.2257 35.0139 89.1387 36.3683 91.7602 36.5077C94.2784 36.6425 96.336 35.6559 97.6985 33.3899C98.6535 31.8088 98.9708 30.0393 98.9546 28.1946Z" fill="#181818"/>
<path d="M58.4408 33.8909L61.0062 31.9513C61.0993 32.0525 61.187 32.1589 61.2689 32.27C63.6897 36.0328 68.4427 37.0409 72.031 35.947C74.7101 35.1334 76.133 33.01 75.916 30.2231C75.8098 28.8672 75.2105 27.7442 74.0488 27.2126C72.3307 26.4235 70.5166 25.8551 68.7349 25.2025C66.8869 24.5253 64.9606 24.0212 63.1967 23.1587C57.8312 20.5327 58.3877 13.1189 62.7982 10.3413C67.7209 7.2388 75.1308 8.65598 78.539 13.5464L76.1124 15.5151C74.8961 13.9248 73.4244 12.8018 71.5956 12.2671C69.2958 11.5945 67.0197 11.6144 64.8573 12.7972C62.996 13.8145 62.1664 15.846 62.7332 17.8332C63.0063 18.7892 63.5642 19.5644 64.4071 19.9781C65.6553 20.5671 66.933 21.0867 68.2345 21.5347C70.2066 22.2364 72.2288 22.7971 74.1757 23.5647C75.1361 23.96 76.0258 24.5198 76.8076 25.2208C80.2232 28.2406 79.9221 34.1177 76.2467 37.1711C74.6614 38.4887 72.8163 39.1628 70.828 39.3742C66.4367 39.8262 62.5236 38.7614 59.4622 35.2529C59.0991 34.8439 58.7995 34.3766 58.4408 33.8909Z" fill="#181818"/>
<path d="M181.737 28.7048H165.927C165.512 31.2863 167.219 34.5711 169.546 35.7524C171.128 36.5326 172.918 36.7355 174.625 36.3281C176.331 35.9207 177.856 34.9269 178.95 33.5079L181.017 35.4C180.132 36.6062 178.993 37.5866 177.687 38.2665C173.474 40.5003 168.109 39.5534 165.255 36.0496C163.435 33.8143 162.77 31.1546 162.774 28.2957C162.774 24.729 163.704 21.4933 166.45 19.1415C169.365 16.6458 172.718 16.2903 176.172 17.6416C179.485 18.9393 181.25 21.6373 181.72 25.2224C181.86 26.3408 181.737 27.4929 181.737 28.7048ZM165.971 25.9777H178.736C178.627 22.4049 176.102 19.8861 172.621 19.8233C168.932 19.7589 166.221 22.244 165.971 25.9777Z" fill="#181818"/>
<path d="M130.963 22.149L129.468 19.7957C131.131 18.4052 133.116 17.4909 135.225 17.1437C137.262 16.7821 139.293 16.7913 141.257 17.5666C143.547 18.469 144.937 20.4392 144.948 22.9472C144.98 28.1287 144.959 33.3102 144.959 38.4933C144.959 38.6158 144.931 38.7399 144.905 38.9652C144.091 38.9652 143.281 38.9927 142.485 38.9391C142.338 38.9299 142.109 38.6021 142.087 38.4013C142.053 37.8766 142.046 37.3503 142.068 36.8248C141.954 36.8248 141.892 36.8064 141.871 36.8248C139.154 39.7097 135.887 40.0146 132.404 38.8518C129.908 38.0183 128.507 35.7876 128.475 32.9808C128.442 30.2231 129.655 28.1594 132.194 27.26C133.945 26.6472 135.828 26.4266 137.638 25.9762C138.689 25.7353 139.721 25.41 140.723 25.0033C141.632 24.6157 142.08 23.8021 142.052 22.7373C142.023 21.6725 141.514 20.9494 140.642 20.4898C139.176 19.7237 137.604 19.7099 136.026 19.9198C134.181 20.1742 132.473 20.8345 130.963 22.149ZM141.987 27.306C139.93 28.403 137.721 28.6251 135.564 29.0786C134.797 29.2478 134.043 29.4751 133.307 29.7589C132.944 29.8853 132.612 30.0945 132.337 30.3713C132.062 30.6481 131.849 30.9854 131.716 31.3584C130.978 33.3761 131.927 35.495 133.895 36.1783C134.386 36.3377 134.892 36.4445 135.405 36.497C138.701 36.9091 141.513 34.9097 141.954 31.6893C142.146 30.2951 141.987 28.8488 141.987 27.306Z" fill="#181818"/>
<path d="M124.023 38.9222H121.218V35.9959C120.914 36.3146 120.755 36.4724 120.603 36.6409C119.444 37.926 117.946 38.8271 116.296 39.2308C114.646 39.6345 112.918 39.5229 111.328 38.91C108.844 37.931 107.652 35.8841 107.21 33.2888C107.095 32.5329 107.041 31.7682 107.049 31.0029C107.035 26.7912 107.049 22.5764 107.049 18.3678V17.4715H109.957V18.2667C109.957 22.2746 109.957 26.2825 109.965 30.2905C109.959 31.0545 110.011 31.8178 110.121 32.5733C110.589 35.5241 112.391 36.739 115.16 36.4939C118.781 36.1737 121.177 33.3025 121.199 29.3773C121.22 25.7004 121.199 22.0234 121.199 18.3464V17.4608H124.032L124.023 38.9222Z" fill="#181818"/>
<path d="M150.188 38.9683V17.4762H153.016V19.8678L153.299 20.0746C153.394 19.877 153.447 19.6365 153.594 19.4909C155.679 17.3583 158.107 16.4605 160.993 17.3782C162.041 17.7122 162.038 17.7781 161.689 18.8168C161.497 19.3883 161.307 19.9597 161.171 20.3673C160.009 20.2616 158.929 19.9797 157.894 20.1068C155.441 20.4132 153.704 22.4049 153.249 25.2378C153.119 26.1198 153.056 27.0112 153.062 27.9036C153.039 31.3242 153.039 34.7459 153.062 38.1685C153.062 38.7952 152.905 39.0372 152.278 38.9867C151.6 38.9254 150.914 38.9683 150.188 38.9683Z" fill="#181818"/>
<path fill-rule="evenodd" clip-rule="evenodd" d="M18.4027 0.413818C8.46159 0.413818 0.40271 8.47271 0.40271 18.4138V29.5862C0.40271 39.5274 8.46158 47.5862 18.4027 47.5862H27.9027C37.8438 47.5862 45.9027 39.5273 45.9027 29.5862V18.4138C45.9027 8.47269 37.8438 0.413818 27.9027 0.413818H18.4027ZM15.4558 8.68968C11.5898 8.68968 8.45581 11.8237 8.45581 15.6897V32.3104C8.45581 36.1764 11.5898 39.3104 15.4558 39.3104H30.8496C34.7156 39.3104 37.8496 36.1764 37.8496 32.3104V15.6897C37.8496 11.8237 34.7156 8.68968 30.8496 8.68968H15.4558Z" fill="#181818"/>
<rect x="16.9116" y="17.3794" width="12.4823" height="13.2414" rx="4" fill="#181818"/>
</g>
<defs>
<clipPath id="clip0_0_663">
<rect width="182" height="48" fill="white"/>
</clipPath>
</defs>
</svg>
